<svg xmlns="http://www.w3.org/2000/svg" width="332.748" height="328.057" viewBox="0 0 332.748 328.057">
  <g id="Logo" transform="translate(917.219 -79.09)">
    <g id="New_Logo_Vector" data-name="New Logo Vector" transform="translate(-917.219 79.089)">
      <path id="Path_1" data-name="Path 1" d="M444.205,406.852l-16.549-50.985V177.193a64.1,64.1,0,0,0-64.105-64.1H176.886a64.105,64.105,0,0,0-64.105,64.1V363.858a64.105,64.105,0,0,0,64.105,64.105h200.94l32.732,11.626C431.01,446.852,450.905,427.495,444.205,406.852Zm-97.9-39.762-24.961-8.865H247.941a64.1,64.1,0,0,1-64.105-64.1V249.838a64.106,64.106,0,0,1,64.105-64.105h44.281a64.106,64.106,0,0,1,64.105,64.105V322.42l8.615,26.54A14.491,14.491,0,0,1,346.31,367.089Z" transform="translate(-112.781 -113.089)" fill="#344675"/>
    </g>
  </g>
</svg>
